<?xml version="1.0" encoding="UTF-8" standalone="no"?>
<!DOCTYPE svg PUBLIC "-//W3C//DTD SVG 1.1//EN"
 "http://www.w3.org/Graphics/SVG/1.1/DTD/svg11.dtd">
<!-- Generated by graphviz version 2.40.1 (20161225.0304)
 -->
<!-- Title: G Pages: 1 -->
<svg width="1686pt" height="510pt"
 viewBox="0.00 0.00 1685.74 510.00" xmlns="http://www.w3.org/2000/svg" xmlns:xlink="http://www.w3.org/1999/xlink">
<g id="graph0" class="graph" transform="scale(1 1) rotate(0) translate(4 506)">
<title>G</title>
<polygon fill="#ffffff" stroke="transparent" points="-4,4 -4,-506 1681.7433,-506 1681.7433,4 -4,4"/>
<!-- deploy_4735621 -->
<g id="node1" class="node">
<title>deploy_4735621</title>
<g id="a_node1"><a xlink:title="Status: successful&#10;Description: Deployment completed successfully">
<polygon fill="#66ff66" stroke="#000000" points="1457.5483,-502 1353.5483,-502 1353.5483,-466 1457.5483,-466 1457.5483,-502"/>
<text text-anchor="middle" x="1405.5483" y="-480.3" font-family="Times,serif" font-size="14.00" fill="#000000">deploy:4735621</text>
</a>
</g>
</g>
<!-- deploy_90c1b8d -->
<g id="node2" class="node">
<title>deploy_90c1b8d</title>
<g id="a_node2"><a xlink:title="Status: running&#10;Description: Deployment is running but requires manual promotion">
<polygon fill="#66ccff" stroke="#000000" points="500.5483,-430 396.5483,-430 396.5483,-394 500.5483,-394 500.5483,-430"/>
<text text-anchor="middle" x="448.5483" y="-408.3" font-family="Times,serif" font-size="14.00" fill="#000000">deploy:90c1b8d</text>
</a>
</g>
</g>
<!-- deploy_4735621&#45;&gt;deploy_90c1b8d -->
<g id="edge1" class="edge">
<title>deploy_4735621&#45;&gt;deploy_90c1b8d</title>
<path fill="none" stroke="#000000" d="M1353.4162,-480.0778C1189.9275,-467.7777 687.6839,-429.9914 510.8998,-416.691"/>
<polygon fill="#000000" stroke="#000000" points="510.9621,-413.1859 500.7277,-415.9257 510.4369,-420.1662 510.9621,-413.1859"/>
</g>
<!-- eval_6f8d794 -->
<g id="node3" class="node">
<title>eval_6f8d794</title>
<g id="a_node3"><a xlink:title="Status: complete&#10;TriggeredBy: job&#45;register">
<ellipse fill="#ccffff" stroke="#000000" cx="1320.5483" cy="-412" rx="57.3905" ry="18"/>
<text text-anchor="middle" x="1320.5483" y="-408.3" font-family="Times,serif" font-size="14.00" fill="#000000">eval:6f8d794</text>
</a>
</g>
</g>
<!-- deploy_4735621&#45;&gt;eval_6f8d794 -->
<g id="edge2" class="edge">
<title>deploy_4735621&#45;&gt;eval_6f8d794</title>
<path fill="none" stroke="#000000" d="M1384.0993,-465.8314C1373.2303,-456.6247 1359.9039,-445.3365 1348.2666,-435.479"/>
<polygon fill="#000000" stroke="#000000" points="1350.4235,-432.7191 1340.5308,-428.9263 1345.899,-438.0604 1350.4235,-432.7191"/>
</g>
<!-- eval_b7e3137 -->
<g id="node4" class="node">
<title>eval_b7e3137</title>
<g id="a_node4"><a xlink:title="Status: complete&#10;TriggeredBy: queued&#45;allocs">
<ellipse fill="#ccffff" stroke="#000000" cx="1405.5483" cy="-340" rx="57.6901" ry="18"/>
<text text-anchor="middle" x="1405.5483" y="-336.3" font-family="Times,serif" font-size="14.00" fill="#000000">eval:b7e3137</text>
</a>
</g>
</g>
<!-- deploy_4735621&#45;&gt;eval_b7e3137 -->
<g id="edge3" class="edge">
<title>deploy_4735621&#45;&gt;eval_b7e3137</title>
<path fill="none" stroke="#000000" d="M1405.5483,-465.7623C1405.5483,-441.201 1405.5483,-397.2474 1405.5483,-368.3541"/>
<polygon fill="#000000" stroke="#000000" points="1409.0484,-368.0896 1405.5483,-358.0896 1402.0484,-368.0897 1409.0484,-368.0896"/>
</g>
<!-- eval_e865ef9 -->
<g id="node5" class="node">
<title>eval_e865ef9</title>
<g id="a_node5"><a xlink:title="Status: complete&#10;TriggeredBy: deployment&#45;watcher">
<ellipse fill="#ccffff" stroke="#000000" cx="1489.5483" cy="-412" rx="55.7903" ry="18"/>
<text text-anchor="middle" x="1489.5483" y="-408.3" font-family="Times,serif" font-size="14.00" fill="#000000">eval:e865ef9</text>
</a>
</g>
</g>
<!-- deploy_4735621&#45;&gt;eval_e865ef9 -->
<g id="edge4" class="edge">
<title>deploy_4735621&#45;&gt;eval_e865ef9</title>
<path fill="none" stroke="#000000" d="M1426.7451,-465.8314C1437.4862,-456.6247 1450.6558,-445.3365 1462.1562,-435.479"/>
<polygon fill="#000000" stroke="#000000" points="1464.4862,-438.0916 1469.801,-428.9263 1459.9306,-432.7768 1464.4862,-438.0916"/>
</g>
<!-- eval_9f93d58 -->
<g id="node6" class="node">
<title>eval_9f93d58</title>
<g id="a_node6"><a xlink:title="Status: complete&#10;TriggeredBy: deployment&#45;watcher">
<ellipse fill="#ccffff" stroke="#000000" cx="1620.5483" cy="-412" rx="57.3905" ry="18"/>
<text text-anchor="middle" x="1620.5483" y="-408.3" font-family="Times,serif" font-size="14.00" fill="#000000">eval:9f93d58</text>
</a>
</g>
</g>
<!-- deploy_4735621&#45;&gt;eval_9f93d58 -->
<g id="edge5" class="edge">
<title>deploy_4735621&#45;&gt;eval_9f93d58</title>
<path fill="none" stroke="#000000" d="M1457.5938,-466.5708C1492.206,-454.9798 1537.3799,-439.8517 1571.3838,-428.4644"/>
<polygon fill="#000000" stroke="#000000" points="1572.7352,-431.7029 1581.1062,-425.2085 1570.5123,-425.0653 1572.7352,-431.7029"/>
</g>
<!-- eval_cdee48a -->
<g id="node7" class="node">
<title>eval_cdee48a</title>
<g id="a_node7"><a xlink:title="Status: complete&#10;TriggeredBy: job&#45;register">
<ellipse fill="#ccffff" stroke="#000000" cx="200.5483" cy="-340" rx="56.59" ry="18"/>
<text text-anchor="middle" x="200.5483" y="-336.3" font-family="Times,serif" font-size="14.00" fill="#000000">eval:cdee48a</text>
</a>
</g>
</g>
<!-- deploy_90c1b8d&#45;&gt;eval_cdee48a -->
<g id="edge6" class="edge">
<title>deploy_90c1b8d&#45;&gt;eval_cdee48a</title>
<path fill="none" stroke="#000000" d="M396.257,-396.8186C353.8937,-384.5196 294.5172,-367.2813 252.2995,-355.0245"/>
<polygon fill="#000000" stroke="#000000" points="253.0736,-351.6048 242.4943,-352.1779 251.1219,-358.3272 253.0736,-351.6048"/>
</g>
<!-- eval_5e26c40 -->
<g id="node8" class="node">
<title>eval_5e26c40</title>
<g id="a_node8"><a xlink:title="Status: complete&#10;TriggeredBy: alloc&#45;failure">
<ellipse fill="#ccffff" stroke="#000000" cx="572.5483" cy="-340" rx="57.6901" ry="18"/>
<text text-anchor="middle" x="572.5483" y="-336.3" font-family="Times,serif" font-size="14.00" fill="#000000">eval:5e26c40</text>
</a>
</g>
</g>
<!-- deploy_90c1b8d&#45;&gt;eval_5e26c40 -->
<g id="edge7" class="edge">
<title>deploy_90c1b8d&#45;&gt;eval_5e26c40</title>
<path fill="none" stroke="#000000" d="M479.8388,-393.8314C496.9457,-383.8983 518.2257,-371.5422 536.0819,-361.1741"/>
<polygon fill="#000000" stroke="#000000" points="538.1768,-364.005 545.0672,-355.9568 534.6618,-357.9514 538.1768,-364.005"/>
</g>
<!-- eval_8fc282b -->
<g id="node9" class="node">
<title>eval_8fc282b</title>
<g id="a_node9"><a xlink:title="Status: complete&#10;TriggeredBy: alloc&#45;failure">
<ellipse fill="#ccffff" stroke="#000000" cx="704.5483" cy="-340" rx="56.59" ry="18"/>
<text text-anchor="middle" x="704.5483" y="-336.3" font-family="Times,serif" font-size="14.00" fill="#000000">eval:8fc282b</text>
</a>
</g>
</g>
<!-- deploy_90c1b8d&#45;&gt;eval_8fc282b -->
<g id="edge8" class="edge">
<title>deploy_90c1b8d&#45;&gt;eval_8fc282b</title>
<path fill="none" stroke="#000000" d="M500.6623,-397.3429C544.8342,-384.9196 607.8763,-367.189 652.1336,-354.7417"/>
<polygon fill="#000000" stroke="#000000" points="653.1576,-358.0895 661.8365,-352.0127 651.2624,-351.351 653.1576,-358.0895"/>
</g>
<!-- eval_6bdeefa -->
<g id="node10" class="node">
<title>eval_6bdeefa</title>
<g id="a_node10"><a xlink:title="Status: complete&#10;TriggeredBy: alloc&#45;failure">
<ellipse fill="#ccffff" stroke="#000000" cx="834.5483" cy="-340" rx="55.7903" ry="18"/>
<text text-anchor="middle" x="834.5483" y="-336.3" font-family="Times,serif" font-size="14.00" fill="#000000">eval:6bdeefa</text>
</a>
</g>
</g>
<!-- deploy_90c1b8d&#45;&gt;eval_6bdeefa -->
<g id="edge9" class="edge">
<title>deploy_90c1b8d&#45;&gt;eval_6bdeefa</title>
<path fill="none" stroke="#000000" d="M500.7491,-405.016C564.7188,-396.0514 676.2359,-379.1061 770.5483,-358 774.8461,-357.0382 779.2845,-355.9632 783.7261,-354.8302"/>
<polygon fill="#000000" stroke="#000000" points="784.6247,-358.213 793.4015,-352.2785 782.8395,-351.4444 784.6247,-358.213"/>
</g>
<!-- eval_c9d9c33 -->
<g id="node11" class="node">
<title>eval_c9d9c33</title>
<g id="a_node11"><a xlink:title="Status: complete&#10;TriggeredBy: deployment&#45;watcher">
<ellipse fill="#ccffff" stroke="#000000" cx="334.5483" cy="-259.5" rx="57.6901" ry="18"/>
<text text-anchor="middle" x="334.5483" y="-255.8" font-family="Times,serif" font-size="14.00" fill="#000000">eval:c9d9c33</text>
</a>
</g>
</g>
<!-- deploy_90c1b8d&#45;&gt;eval_c9d9c33 -->
<g id="edge10" class="edge">
<title>deploy_90c1b8d&#45;&gt;eval_c9d9c33</title>
<path fill="none" stroke="#000000" d="M424.8719,-393.8784C413.0548,-384.0851 399.0749,-371.2942 388.5483,-358 371.095,-335.9577 356.1737,-307.5032 346.4679,-286.8492"/>
<polygon fill="#000000" stroke="#000000" points="349.6118,-285.3082 342.2596,-277.6796 343.2498,-288.228 349.6118,-285.3082"/>
</g>
<!-- eval_28a2aa4 -->
<g id="node12" class="node">
<title>eval_28a2aa4</title>
<g id="a_node12"><a xlink:title="Status: complete&#10;TriggeredBy: alloc&#45;failure">
<ellipse fill="#ccffff" stroke="#000000" cx="331.5483" cy="-179" rx="57.3905" ry="18"/>
<text text-anchor="middle" x="331.5483" y="-175.3" font-family="Times,serif" font-size="14.00" fill="#000000">eval:28a2aa4</text>
</a>
</g>
</g>
<!-- deploy_90c1b8d&#45;&gt;eval_28a2aa4 -->
<g id="edge11" class="edge">
<title>deploy_90c1b8d&#45;&gt;eval_28a2aa4</title>
<path fill="none" stroke="#000000" d="M399.3735,-393.859C355.4172,-374.6307 293.9889,-339.5579 267.5483,-286 257.1209,-264.8782 257.6224,-254.3621 267.5483,-233 273.4551,-220.2877 283.9916,-209.4909 294.8324,-200.97"/>
<polygon fill="#000000" stroke="#000000" points="297.113,-203.6379 303.11,-194.9037 292.9752,-197.9918 297.113,-203.6379"/>
</g>
<!-- eval_3dae191 -->
<g id="node13" class="node">
<title>eval_3dae191</title>
<g id="a_node13"><a xlink:title="Status: complete&#10;TriggeredBy: alloc&#45;failure">
<ellipse fill="#ccffff" stroke="#000000" cx="966.5483" cy="-340" rx="57.6901" ry="18"/>
<text text-anchor="middle" x="966.5483" y="-336.3" font-family="Times,serif" font-size="14.00" fill="#000000">eval:3dae191</text>
</a>
</g>
</g>
<!-- deploy_90c1b8d&#45;&gt;eval_3dae191 -->
<g id="edge12" class="edge">
<title>deploy_90c1b8d&#45;&gt;eval_3dae191</title>
<path fill="none" stroke="#000000" d="M500.6663,-408.2006C585.0328,-401.505 756.5027,-385.6311 899.5483,-358 904.323,-357.0777 909.2582,-355.9986 914.1844,-354.8351"/>
<polygon fill="#000000" stroke="#000000" points="915.3619,-358.1494 924.2294,-352.3515 913.6817,-351.3541 915.3619,-358.1494"/>
</g>
<!-- eval_6d18867 -->
<g id="node14" class="node">
<title>eval_6d18867</title>
<g id="a_node14"><a xlink:title="Status: complete&#10;TriggeredBy: alloc&#45;failure">
<ellipse fill="#ccffff" stroke="#000000" cx="1100.5483" cy="-340" rx="58.4896" ry="18"/>
<text text-anchor="middle" x="1100.5483" y="-336.3" font-family="Times,serif" font-size="14.00" fill="#000000">eval:6d18867</text>
</a>
</g>
</g>
<!-- deploy_90c1b8d&#45;&gt;eval_6d18867 -->
<g id="edge13" class="edge">
<title>deploy_90c1b8d&#45;&gt;eval_6d18867</title>
<path fill="none" stroke="#000000" d="M500.5948,-410.1714C603.2536,-405.9107 838.7797,-392.8895 1033.5483,-358 1038.3351,-357.1425 1043.2785,-356.1078 1048.2101,-354.9731"/>
<polygon fill="#000000" stroke="#000000" points="1049.3728,-358.2924 1058.2623,-352.5281 1047.7184,-351.4907 1049.3728,-358.2924"/>
</g>
<!-- eval_2daa11e -->
<g id="node15" class="node">
<title>eval_2daa11e</title>
<g id="a_node15"><a xlink:title="Status: complete&#10;TriggeredBy: alloc&#45;failure">
<ellipse fill="#ccffff" stroke="#000000" cx="1234.5483" cy="-340" rx="57.3905" ry="18"/>
<text text-anchor="middle" x="1234.5483" y="-336.3" font-family="Times,serif" font-size="14.00" fill="#000000">eval:2daa11e</text>
</a>
</g>
</g>
<!-- deploy_90c1b8d&#45;&gt;eval_2daa11e -->
<g id="edge14" class="edge">
<title>deploy_90c1b8d&#45;&gt;eval_2daa11e</title>
<path fill="none" stroke="#000000" d="M500.8353,-411.421C619.9799,-409.3738 920.4385,-400.0904 1167.5483,-358 1172.6131,-357.1373 1177.8502,-356.0624 1183.0616,-354.8698"/>
<polygon fill="#000000" stroke="#000000" points="1184.1081,-358.2175 1192.9997,-352.4565 1182.4562,-351.4152 1184.1081,-358.2175"/>
</g>
<!-- eval_f998737 -->
<g id="node16" class="node">
<title>eval_f998737</title>
<g id="a_node16"><a xlink:title="Status: complete&#10;TriggeredBy: deployment&#45;watcher">
<ellipse fill="#ccffff" stroke="#000000" cx="737.5483" cy="-98.5" rx="57.3905" ry="18"/>
<text text-anchor="middle" x="737.5483" y="-94.8" font-family="Times,serif" font-size="14.00" fill="#000000">eval:f998737</text>
</a>
</g>
</g>
<!-- deploy_90c1b8d&#45;&gt;eval_f998737 -->
<g id="edge15" class="edge">
<title>deploy_90c1b8d&#45;&gt;eval_f998737</title>
<path fill="none" stroke="#000000" d="M455.543,-393.7504C464.2578,-373.3787 481.0499,-340.8102 505.5483,-322 548.028,-289.3836 578.178,-318.7583 620.5483,-286 675.6764,-243.3782 711.4695,-166.867 727.6165,-125.9996"/>
<polygon fill="#000000" stroke="#000000" points="730.9777,-127.0098 731.2982,-116.4198 724.4437,-124.4986 730.9777,-127.0098"/>
</g>
<!-- alloc_9f68e33 -->
<g id="node19" class="node">
<title>alloc_9f68e33</title>
<g id="a_node19"><a xlink:title="DesiredStatus: stop&#10;DeploymentStatus.Canary: true&#10;DeploymentStatus.Healthy: false">
<polygon fill="#ff0066" stroke="#000000" points="612.0483,-286 521.0483,-286 521.0483,-233 612.0483,-233 612.0483,-286"/>
<text text-anchor="middle" x="566.5483" y="-270.8" font-family="Times,serif" font-size="14.00" fill="#000000">alloc:9f68e33</text>
<text text-anchor="middle" x="566.5483" y="-255.8" font-family="Times,serif" font-size="14.00" fill="#000000">v1</text>
<text text-anchor="middle" x="566.5483" y="-240.8" font-family="Times,serif" font-size="14.00" fill="#000000">failed</text>
</a>
</g>
</g>
<!-- deploy_90c1b8d&#45;&gt;alloc_9f68e33 -->
<g id="edge17" class="edge">
<title>deploy_90c1b8d&#45;&gt;alloc_9f68e33</title>
<path fill="none" stroke="#0000ff" d="M439.0292,-393.9608C430.2869,-374.6614 420.6255,-343.8788 434.5483,-322 454.8303,-290.1283 477.42,-302.1992 511.5483,-286 511.6441,-285.9546 511.7399,-285.9091 511.8359,-285.8635"/>
<polygon fill="#0000ff" stroke="#0000ff" points="513.4276,-288.9822 520.9494,-281.5208 510.4163,-282.6629 513.4276,-288.9822"/>
</g>
<!-- alloc_e7cfc8c -->
<g id="node20" class="node">
<title>alloc_e7cfc8c</title>
<g id="a_node20"><a xlink:title="DesiredStatus: stop&#10;DeploymentStatus.Canary: true&#10;DeploymentStatus.Healthy: false">
<polygon fill="#ff0066" stroke="#000000" points="110.0483,-286 21.0483,-286 21.0483,-233 110.0483,-233 110.0483,-286"/>
<text text-anchor="middle" x="65.5483" y="-270.8" font-family="Times,serif" font-size="14.00" fill="#000000">alloc:e7cfc8c</text>
<text text-anchor="middle" x="65.5483" y="-255.8" font-family="Times,serif" font-size="14.00" fill="#000000">v1</text>
<text text-anchor="middle" x="65.5483" y="-240.8" font-family="Times,serif" font-size="14.00" fill="#000000">failed</text>
</a>
</g>
</g>
<!-- deploy_90c1b8d&#45;&gt;alloc_e7cfc8c -->
<g id="edge18" class="edge">
<title>deploy_90c1b8d&#45;&gt;alloc_e7cfc8c</title>
<path fill="none" stroke="#0000ff" d="M396.5068,-408.6804C316.2508,-402.69 166.9888,-387.8239 123.5483,-358 101.8413,-343.0971 87.0553,-317.1835 77.8471,-295.6755"/>
<polygon fill="#0000ff" stroke="#0000ff" points="80.9939,-294.1207 74.0039,-286.1589 74.5032,-296.7419 80.9939,-294.1207"/>
</g>
<!-- alloc_7dcca6d -->
<g id="node21" class="node">
<title>alloc_7dcca6d</title>
<g id="a_node21"><a xlink:title="DesiredStatus: stop&#10;DeploymentStatus.Canary: true&#10;DeploymentStatus.Healthy: false">
<polygon fill="#ff0066" stroke="#000000" points="502.5483,-286 410.5483,-286 410.5483,-233 502.5483,-233 502.5483,-286"/>
<text text-anchor="middle" x="456.5483" y="-270.8" font-family="Times,serif" font-size="14.00" fill="#000000">alloc:7dcca6d</text>
<text text-anchor="middle" x="456.5483" y="-255.8" font-family="Times,serif" font-size="14.00" fill="#000000">v1</text>
<text text-anchor="middle" x="456.5483" y="-240.8" font-family="Times,serif" font-size="14.00" fill="#000000">failed</text>
</a>
</g>
</g>
<!-- deploy_90c1b8d&#45;&gt;alloc_7dcca6d -->
<g id="edge19" class="edge">
<title>deploy_90c1b8d&#45;&gt;alloc_7dcca6d</title>
<path fill="none" stroke="#0000ff" d="M423.9682,-393.7772C413.4001,-384.4022 402.1941,-372.0021 396.5483,-358 390.5651,-343.1608 390.5765,-336.8438 396.5483,-322 400.7176,-311.6366 407.5174,-302.0262 415.0705,-293.604"/>
<polygon fill="#0000ff" stroke="#0000ff" points="417.7632,-295.8531 422.165,-286.2159 412.7142,-291.0047 417.7632,-295.8531"/>
</g>
<!-- alloc_8c5edbb -->
<g id="node22" class="node">
<title>alloc_8c5edbb</title>
<g id="a_node22"><a xlink:title="DesiredStatus: stop&#10;DeploymentStatus.Canary: true&#10;DeploymentStatus.Healthy: false">
<polygon fill="#ff0066" stroke="#000000" points="220.5483,-286 128.5483,-286 128.5483,-233 220.5483,-233 220.5483,-286"/>
<text text-anchor="middle" x="174.5483" y="-270.8" font-family="Times,serif" font-size="14.00" fill="#000000">alloc:8c5edbb</text>
<text text-anchor="middle" x="174.5483" y="-255.8" font-family="Times,serif" font-size="14.00" fill="#000000">v1</text>
<text text-anchor="middle" x="174.5483" y="-240.8" font-family="Times,serif" font-size="14.00" fill="#000000">failed</text>
</a>
</g>
</g>
<!-- deploy_90c1b8d&#45;&gt;alloc_8c5edbb -->
<g id="edge20" class="edge">
<title>deploy_90c1b8d&#45;&gt;alloc_8c5edbb</title>
<path fill="none" stroke="#0000ff" d="M396.3836,-406.6923C311.5045,-397.5258 151.2345,-377.8007 134.5483,-358 119.0772,-339.6411 129.6557,-314.5081 143.8057,-294.225"/>
<polygon fill="#0000ff" stroke="#0000ff" points="146.6508,-296.2643 149.799,-286.1479 141.0293,-292.093 146.6508,-296.2643"/>
</g>
<!-- alloc_239d2fb -->
<g id="node23" class="node">
<title>alloc_239d2fb</title>
<g id="a_node23"><a xlink:title="DesiredStatus: run&#10;DeploymentStatus.Canary: true&#10;DeploymentStatus.Healthy: false">
<polygon fill="#ff0066" stroke="#000000" points="304.5483,-125 212.5483,-125 212.5483,-72 304.5483,-72 304.5483,-125"/>
<text text-anchor="middle" x="258.5483" y="-109.8" font-family="Times,serif" font-size="14.00" fill="#000000">alloc:239d2fb</text>
<text text-anchor="middle" x="258.5483" y="-94.8" font-family="Times,serif" font-size="14.00" fill="#000000">v1</text>
<text text-anchor="middle" x="258.5483" y="-79.8" font-family="Times,serif" font-size="14.00" fill="#000000">failed</text>
</a>
</g>
</g>
<!-- deploy_90c1b8d&#45;&gt;alloc_239d2fb -->
<g id="edge21" class="edge">
<title>deploy_90c1b8d&#45;&gt;alloc_239d2fb</title>
<path fill="none" stroke="#0000ff" d="M396.2912,-407.9312C310.1933,-400.6013 142.7509,-383.5267 89.5483,-358 47.0129,-337.5914 30.4702,-329.2173 11.5483,-286 -11.5431,-233.2596 .9016,-197.3515 45.5483,-161 98.3791,-117.985 129.769,-146.0953 194.5483,-125 197.282,-124.1098 200.0632,-123.1547 202.8593,-122.1547"/>
<polygon fill="#0000ff" stroke="#0000ff" points="204.2259,-125.3807 212.3753,-118.6104 201.7826,-118.8209 204.2259,-125.3807"/>
</g>
<!-- alloc_87a90b2 -->
<g id="node24" class="node">
<title>alloc_87a90b2</title>
<g id="a_node24"><a xlink:title="DesiredStatus: stop&#10;DeploymentStatus.Canary: true&#10;DeploymentStatus.Healthy: false">
<polygon fill="#66ccff" stroke="#000000" points="645.0483,-125 552.0483,-125 552.0483,-72 645.0483,-72 645.0483,-125"/>
<text text-anchor="middle" x="598.5483" y="-109.8" font-family="Times,serif" font-size="14.00" fill="#000000">alloc:87a90b2</text>
<text text-anchor="middle" x="598.5483" y="-94.8" font-family="Times,serif" font-size="14.00" fill="#000000">v1</text>
<text text-anchor="middle" x="598.5483" y="-79.8" font-family="Times,serif" font-size="14.00" fill="#000000">complete</text>
</a>
</g>
</g>
<!-- deploy_90c1b8d&#45;&gt;alloc_87a90b2 -->
<g id="edge22" class="edge">
<title>deploy_90c1b8d&#45;&gt;alloc_87a90b2</title>
<path fill="none" stroke="#0000ff" d="M500.553,-410.6459C681.3509,-405.689 1273.0661,-387.2793 1300.5483,-358 1375.0701,-278.6055 1265.6574,-311.5416 1183.5483,-286 955.7733,-215.1461 897.4917,-201.4941 671.5483,-125 666.0669,-123.1442 660.3714,-121.1658 654.6877,-119.158"/>
<polygon fill="#0000ff" stroke="#0000ff" points="655.7683,-115.8275 645.1736,-115.7678 653.4186,-122.4214 655.7683,-115.8275"/>
</g>
<!-- alloc_6b2682f -->
<g id="node25" class="node">
<title>alloc_6b2682f</title>
<g id="a_node25"><a xlink:title="DesiredStatus: run&#10;DeploymentStatus.Canary: true&#10;DeploymentStatus.Healthy: false">
<polygon fill="#ff0066" stroke="#000000" points="185.5483,-125 93.5483,-125 93.5483,-72 185.5483,-72 185.5483,-125"/>
<text text-anchor="middle" x="139.5483" y="-109.8" font-family="Times,serif" font-size="14.00" fill="#000000">alloc:6b2682f</text>
<text text-anchor="middle" x="139.5483" y="-94.8" font-family="Times,serif" font-size="14.00" fill="#000000">v1</text>
<text text-anchor="middle" x="139.5483" y="-79.8" font-family="Times,serif" font-size="14.00" fill="#000000">failed</text>
</a>
</g>
</g>
<!-- deploy_90c1b8d&#45;&gt;alloc_6b2682f -->
<g id="edge23" class="edge">
<title>deploy_90c1b8d&#45;&gt;alloc_6b2682f</title>
<path fill="none" stroke="#0000ff" d="M396.2912,-407.9312C310.1933,-400.6013 142.7509,-383.5267 89.5483,-358 47.0129,-337.5914 30.4702,-329.2173 11.5483,-286 -11.5431,-233.2596 7.9062,-204.5642 45.5483,-161 56.4774,-148.3516 70.559,-137.1933 84.4791,-127.9364"/>
<polygon fill="#0000ff" stroke="#0000ff" points="86.5596,-130.7604 93.0959,-122.422 82.7864,-124.8643 86.5596,-130.7604"/>
</g>
<!-- alloc_fd39cc9 -->
<g id="node26" class="node">
<title>alloc_fd39cc9</title>
<g id="a_node26"><a xlink:title="DesiredStatus: run&#10;DeploymentStatus.Canary: true&#10;DeploymentStatus.Healthy: false">
<polygon fill="#ff0066" stroke="#000000" points="531.5483,-125 441.5483,-125 441.5483,-72 531.5483,-72 531.5483,-125"/>
<text text-anchor="middle" x="486.5483" y="-109.8" font-family="Times,serif" font-size="14.00" fill="#000000">alloc:fd39cc9</text>
<text text-anchor="middle" x="486.5483" y="-94.8" font-family="Times,serif" font-size="14.00" fill="#000000">v1</text>
<text text-anchor="middle" x="486.5483" y="-79.8" font-family="Times,serif" font-size="14.00" fill="#000000">failed</text>
</a>
</g>
</g>
<!-- deploy_90c1b8d&#45;&gt;alloc_fd39cc9 -->
<g id="edge24" class="edge">
<title>deploy_90c1b8d&#45;&gt;alloc_fd39cc9</title>
<path fill="none" stroke="#0000ff" d="M455.543,-393.7504C464.2578,-373.3787 481.0499,-340.8102 505.5483,-322 548.028,-289.3836 588.8353,-329.1582 620.5483,-286 655.1692,-238.8846 619.3322,-203.8453 579.5483,-161 568.2578,-148.8407 554.1666,-137.8456 540.3944,-128.5888"/>
<polygon fill="#0000ff" stroke="#0000ff" points="542.1793,-125.5745 531.8884,-123.0549 538.3619,-131.442 542.1793,-125.5745"/>
</g>
<!-- eval_6f8d794&#45;&gt;eval_b7e3137 -->
<g id="edge25" class="edge">
<title>eval_6f8d794&#45;&gt;eval_b7e3137</title>
<path fill="none" stroke="#000000" d="M1340.6922,-394.937C1351.8071,-385.522 1365.774,-373.6912 1377.8972,-363.4221"/>
<polygon fill="#000000" stroke="#000000" points="1380.1809,-366.0747 1385.5491,-356.9405 1375.6564,-360.7333 1380.1809,-366.0747"/>
</g>
<!-- alloc_0b122a6 -->
<g id="node27" class="node">
<title>alloc_0b122a6</title>
<g id="a_node27"><a xlink:title="DesiredStatus: stop&#10;DeploymentStatus.Canary: false&#10;DeploymentStatus.Healthy: true">
<polygon fill="#66ccff" stroke="#000000" points="1397.0483,-286 1304.0483,-286 1304.0483,-233 1397.0483,-233 1397.0483,-286"/>
<text text-anchor="middle" x="1350.5483" y="-270.8" font-family="Times,serif" font-size="14.00" fill="#000000">alloc:0b122a6</text>
<text text-anchor="middle" x="1350.5483" y="-255.8" font-family="Times,serif" font-size="14.00" fill="#000000">v0</text>
<text text-anchor="middle" x="1350.5483" y="-240.8" font-family="Times,serif" font-size="14.00" fill="#000000">complete</text>
</a>
</g>
</g>
<!-- eval_b7e3137&#45;&gt;alloc_0b122a6 -->
<g id="edge32" class="edge">
<title>eval_b7e3137&#45;&gt;alloc_0b122a6</title>
<path fill="none" stroke="#000000" d="M1393.3421,-322.1344C1387.8176,-314.0487 1381.0858,-304.1957 1374.6121,-294.7205"/>
<polygon fill="#000000" stroke="#000000" points="1377.3126,-292.4689 1368.7814,-286.1865 1371.5328,-296.4179 1377.3126,-292.4689"/>
</g>
<!-- alloc_1bab0f7 -->
<g id="node28" class="node">
<title>alloc_1bab0f7</title>
<g id="a_node28"><a xlink:title="DesiredStatus: run&#10;DeploymentStatus.Canary: false&#10;DeploymentStatus.Healthy: true">
<polygon fill="#66ff66" stroke="#000000" points="1506.0483,-286 1415.0483,-286 1415.0483,-233 1506.0483,-233 1506.0483,-286"/>
<text text-anchor="middle" x="1460.5483" y="-270.8" font-family="Times,serif" font-size="14.00" fill="#000000">alloc:1bab0f7</text>
<text text-anchor="middle" x="1460.5483" y="-255.8" font-family="Times,serif" font-size="14.00" fill="#000000">v0</text>
<text text-anchor="middle" x="1460.5483" y="-240.8" font-family="Times,serif" font-size="14.00" fill="#000000">running</text>
</a>
</g>
</g>
<!-- eval_b7e3137&#45;&gt;alloc_1bab0f7 -->
<g id="edge33" class="edge">
<title>eval_b7e3137&#45;&gt;alloc_1bab0f7</title>
<path fill="none" stroke="#000000" d="M1417.7546,-322.1344C1423.2791,-314.0487 1430.0109,-304.1957 1436.4846,-294.7205"/>
<polygon fill="#000000" stroke="#000000" points="1439.5638,-296.4179 1442.3153,-286.1865 1433.784,-292.4689 1439.5638,-296.4179"/>
</g>
<!-- alloc_40481c3 -->
<g id="node29" class="node">
<title>alloc_40481c3</title>
<g id="a_node29"><a xlink:title="DesiredStatus: stop&#10;DeploymentStatus.Canary: false&#10;DeploymentStatus.Healthy: true">
<polygon fill="#66ccff" stroke="#000000" points="1617.0483,-286 1524.0483,-286 1524.0483,-233 1617.0483,-233 1617.0483,-286"/>
<text text-anchor="middle" x="1570.5483" y="-270.8" font-family="Times,serif" font-size="14.00" fill="#000000">alloc:40481c3</text>
<text text-anchor="middle" x="1570.5483" y="-255.8" font-family="Times,serif" font-size="14.00" fill="#000000">v0</text>
<text text-anchor="middle" x="1570.5483" y="-240.8" font-family="Times,serif" font-size="14.00" fill="#000000">complete</text>
</a>
</g>
</g>
<!-- eval_b7e3137&#45;&gt;alloc_40481c3 -->
<g id="edge34" class="edge">
<title>eval_b7e3137&#45;&gt;alloc_40481c3</title>
<path fill="none" stroke="#000000" d="M1436.972,-324.6691C1458.9695,-313.937 1488.9543,-299.308 1514.9417,-286.6293"/>
<polygon fill="#000000" stroke="#000000" points="1516.4946,-289.7661 1523.9473,-282.2356 1513.4252,-283.4749 1516.4946,-289.7661"/>
</g>
<!-- alloc_522d5bc -->
<g id="node30" class="node">
<title>alloc_522d5bc</title>
<g id="a_node30"><a xlink:title="DesiredStatus: stop&#10;DeploymentStatus.Canary: false&#10;DeploymentStatus.Healthy: true">
<polygon fill="#66ccff" stroke="#000000" points="1286.0483,-286 1193.0483,-286 1193.0483,-233 1286.0483,-233 1286.0483,-286"/>
<text text-anchor="middle" x="1239.5483" y="-270.8" font-family="Times,serif" font-size="14.00" fill="#000000">alloc:522d5bc</text>
<text text-anchor="middle" x="1239.5483" y="-255.8" font-family="Times,serif" font-size="14.00" fill="#000000">v0</text>
<text text-anchor="middle" x="1239.5483" y="-240.8" font-family="Times,serif" font-size="14.00" fill="#000000">complete</text>
</a>
</g>
</g>
<!-- eval_b7e3137&#45;&gt;alloc_522d5bc -->
<g id="edge35" class="edge">
<title>eval_b7e3137&#45;&gt;alloc_522d5bc</title>
<path fill="none" stroke="#000000" d="M1373.9343,-324.6691C1351.7193,-313.8961 1321.4074,-299.1967 1295.194,-286.4848"/>
<polygon fill="#000000" stroke="#000000" points="1296.6379,-283.2952 1286.1129,-282.081 1293.5835,-289.5937 1296.6379,-283.2952"/>
</g>
<!-- eval_cdee48a&#45;&gt;alloc_9f68e33 -->
<g id="edge30" class="edge">
<title>eval_cdee48a&#45;&gt;alloc_9f68e33</title>
<path fill="none" stroke="#000000" d="M255.0168,-335.1552C317.9767,-328.5059 424.145,-314.0418 511.5483,-286 511.6461,-285.9686 511.7439,-285.9371 511.8418,-285.9055"/>
<polygon fill="#000000" stroke="#000000" points="512.7984,-289.281 521.023,-282.6022 510.4285,-282.6944 512.7984,-289.281"/>
</g>
<!-- eval_cdee48a&#45;&gt;alloc_e7cfc8c -->
<g id="edge31" class="edge">
<title>eval_cdee48a&#45;&gt;alloc_e7cfc8c</title>
<path fill="none" stroke="#000000" d="M173.8767,-324.0958C158.2213,-314.7606 137.8724,-302.6266 119.0442,-291.3994"/>
<polygon fill="#000000" stroke="#000000" points="120.6192,-288.2636 110.2377,-286.1481 117.0341,-294.2759 120.6192,-288.2636"/>
</g>
<!-- eval_cdee48a&#45;&gt;alloc_7dcca6d -->
<g id="edge28" class="edge">
<title>eval_cdee48a&#45;&gt;alloc_7dcca6d</title>
<path fill="none" stroke="#000000" d="M247.6234,-329.9754C286.6828,-321.0742 343.6645,-306.7407 400.7675,-286.0471"/>
<polygon fill="#000000" stroke="#000000" points="402.1304,-289.2749 410.3023,-282.5317 399.7089,-282.7071 402.1304,-289.2749"/>
</g>
<!-- eval_cdee48a&#45;&gt;alloc_8c5edbb -->
<g id="edge29" class="edge">
<title>eval_cdee48a&#45;&gt;alloc_8c5edbb</title>
<path fill="none" stroke="#000000" d="M194.6485,-321.7333C192.1619,-314.0343 189.1753,-304.7873 186.2741,-295.8049"/>
<polygon fill="#000000" stroke="#000000" points="189.5915,-294.6879 183.1873,-286.2477 182.9303,-296.8394 189.5915,-294.6879"/>
</g>
<!-- eval_c9d9c33&#45;&gt;eval_28a2aa4 -->
<g id="edge26" class="edge">
<title>eval_c9d9c33&#45;&gt;eval_28a2aa4</title>
<path fill="none" stroke="#000000" d="M333.8676,-241.2333C333.4955,-231.2496 333.0265,-218.663 332.6077,-207.4258"/>
<polygon fill="#000000" stroke="#000000" points="336.0965,-207.0571 332.2264,-197.1944 329.1013,-207.3178 336.0965,-207.0571"/>
</g>
<!-- eval_28a2aa4&#45;&gt;alloc_239d2fb -->
<g id="edge36" class="edge">
<title>eval_28a2aa4&#45;&gt;alloc_239d2fb</title>
<path fill="none" stroke="#000000" d="M315.7084,-161.5327C308.0228,-153.0575 298.515,-142.5728 289.4744,-132.6034"/>
<polygon fill="#000000" stroke="#000000" points="292.0003,-130.1785 282.69,-125.1219 286.8149,-134.8809 292.0003,-130.1785"/>
</g>
<!-- eval_28a2aa4&#45;&gt;alloc_87a90b2 -->
<g id="edge38" class="edge">
<title>eval_28a2aa4&#45;&gt;alloc_87a90b2</title>
<path fill="none" stroke="#000000" d="M374.8283,-167.0659C382.3944,-165.0169 390.1957,-162.9279 397.5483,-161 460.9438,-144.377 478.7092,-146.7079 540.5483,-125 541.1359,-124.7937 541.7257,-124.5837 542.3172,-124.3703"/>
<polygon fill="#000000" stroke="#000000" points="543.919,-127.5044 551.9983,-120.6505 541.4083,-120.9701 543.919,-127.5044"/>
</g>
<!-- eval_28a2aa4&#45;&gt;alloc_6b2682f -->
<g id="edge37" class="edge">
<title>eval_28a2aa4&#45;&gt;alloc_6b2682f</title>
<path fill="none" stroke="#000000" d="M296.7786,-164.4221C268.4521,-152.5456 227.9189,-135.5512 195.1022,-121.7921"/>
<polygon fill="#000000" stroke="#000000" points="196.2043,-118.459 185.6287,-117.8202 193.4976,-124.9146 196.2043,-118.459"/>
</g>
<!-- eval_28a2aa4&#45;&gt;alloc_fd39cc9 -->
<g id="edge39" class="edge">
<title>eval_28a2aa4&#45;&gt;alloc_fd39cc9</title>
<path fill="none" stroke="#000000" d="M361.4339,-163.4788C381.5593,-153.0265 408.679,-138.9418 432.5244,-126.5576"/>
<polygon fill="#000000" stroke="#000000" points="434.2203,-129.6208 441.4817,-121.9056 430.994,-123.4086 434.2203,-129.6208"/>
</g>
<!-- eval_949a642 -->
<g id="node18" class="node">
<title>eval_949a642</title>
<g id="a_node18"><a xlink:title="Status: pending&#10;TriggeredBy: alloc&#45;failure">
<ellipse fill="#ccffff" stroke="#000000" cx="365.5483" cy="-18" rx="57.6901" ry="18"/>
<text text-anchor="middle" x="365.5483" y="-14.3" font-family="Times,serif" font-size="14.00" fill="#000000">eval:949a642</text>
</a>
</g>
</g>
<!-- eval_f998737&#45;&gt;eval_949a642 -->
<g id="edge27" class="edge">
<title>eval_f998737&#45;&gt;eval_949a642</title>
<path fill="none" stroke="#000000" d="M698.9531,-85.1665C684.7875,-80.5806 668.5484,-75.6796 653.5483,-72 564.5568,-50.17 540.4928,-53.4939 450.5483,-36 441.6319,-34.2658 432.207,-32.3515 423.0062,-30.4377"/>
<polygon fill="#000000" stroke="#000000" points="423.6504,-26.9967 413.145,-28.3699 422.2138,-33.8477 423.6504,-26.9967"/>
</g>
<!-- deploy_ -->
<g id="node17" class="node">
<title>deploy_</title>
<ellipse fill="none" stroke="#000000" cx="365.5483" cy="-98.5" rx="38.9931" ry="18"/>
<text text-anchor="middle" x="365.5483" y="-94.8" font-family="Times,serif" font-size="14.00" fill="#000000">deploy_</text>
</g>
<!-- deploy_&#45;&gt;eval_949a642 -->
<g id="edge16" class="edge">
<title>deploy_&#45;&gt;eval_949a642</title>
<path fill="none" stroke="#000000" d="M365.5483,-80.2333C365.5483,-70.2496 365.5483,-57.663 365.5483,-46.4258"/>
<polygon fill="#000000" stroke="#000000" points="369.0484,-46.1944 365.5483,-36.1944 362.0484,-46.1944 369.0484,-46.1944"/>
</g>
<!-- alloc_9f68e33&#45;&gt;eval_28a2aa4 -->
<g id="edge42" class="edge">
<title>alloc_9f68e33&#45;&gt;eval_28a2aa4</title>
<path fill="none" stroke="#000000" d="M520.8711,-236.8268C517.7392,-235.4784 514.6115,-234.1889 511.5483,-233 488.2907,-223.9731 428.5822,-206.4598 384.2743,-193.8212"/>
<polygon fill="#000000" stroke="#000000" points="385.0841,-190.4127 374.508,-191.043 383.1688,-197.1456 385.0841,-190.4127"/>
</g>
<!-- alloc_9f68e33&#45;&gt;alloc_87a90b2 -->
<g id="edge49" class="edge">
<title>alloc_9f68e33&#45;&gt;alloc_87a90b2</title>
<path fill="none" stroke="#ff0000" d="M572.2007,-232.753C574.5147,-221.6936 577.196,-208.7361 579.5483,-197 583.6302,-176.6352 588.0323,-153.8681 591.5704,-135.3565"/>
<polygon fill="#ff0000" stroke="#ff0000" points="595.0574,-135.7551 593.4921,-125.2766 588.1812,-134.4442 595.0574,-135.7551"/>
</g>
<!-- task_rails_9f68e33 -->
<g id="node33" class="node">
<title>task_rails_9f68e33</title>
<g id="a_node33"><a xlink:title="State: dead&#10;Restarts: 0&#10;Events:&#10;&#45; Task received by client&#10;&#45; Building Task Directory&#10;&#45; Task started by client&#10;&#45; Exit Code: 1, Exit Message: &quot;Docker container exited with non&#45;zero exit code: 1&quot;&#10;&#45; Policy allows no restarts&#10;&#45; Unhealthy because of failed task">
<ellipse fill="#d1d1e0" stroke="#000000" cx="543.5483" cy="-179" rx="27" ry="18"/>
<text text-anchor="middle" x="543.5483" y="-175.3" font-family="Times,serif" font-size="14.00" fill="#000000">rails</text>
</a>
</g>
</g>
<!-- alloc_9f68e33&#45;&gt;task_rails_9f68e33 -->
<g id="edge53" class="edge">
<title>alloc_9f68e33&#45;&gt;task_rails_9f68e33</title>
<path fill="none" stroke="#000000" d="M558.8897,-232.6947C556.5113,-224.3705 553.8853,-215.1795 551.4883,-206.7898"/>
<polygon fill="#000000" stroke="#000000" points="554.8226,-205.7195 548.71,-197.0658 548.0919,-207.6426 554.8226,-205.7195"/>
</g>
<!-- alloc_e7cfc8c&#45;&gt;eval_28a2aa4 -->
<g id="edge43" class="edge">
<title>alloc_e7cfc8c&#45;&gt;eval_28a2aa4</title>
<path fill="none" stroke="#000000" d="M110.3145,-236.637C113.4089,-235.3345 116.5061,-234.107 119.5483,-233 182.3521,-210.1472 200.8603,-213.7936 265.5483,-197 269.6868,-195.9256 273.9665,-194.7974 278.2659,-193.6519"/>
<polygon fill="#000000" stroke="#000000" points="279.5258,-196.9376 288.2763,-190.9643 277.7107,-190.177 279.5258,-196.9376"/>
</g>
<!-- alloc_e7cfc8c&#45;&gt;alloc_6b2682f -->
<g id="edge48" class="edge">
<title>alloc_e7cfc8c&#45;&gt;alloc_6b2682f</title>
<path fill="none" stroke="#ff0000" d="M92.4664,-232.8869C101.6521,-222.4676 111.1973,-209.921 117.5483,-197 127.0047,-177.7613 132.4472,-154.4144 135.5526,-135.28"/>
<polygon fill="#ff0000" stroke="#ff0000" points="139.0521,-135.5395 137.048,-125.1359 132.127,-134.5185 139.0521,-135.5395"/>
</g>
<!-- task_rails_e7cfc8c -->
<g id="node34" class="node">
<title>task_rails_e7cfc8c</title>
<g id="a_node34"><a xlink:title="State: dead&#10;Restarts: 0&#10;Events:&#10;&#45; Task received by client&#10;&#45; Building Task Directory&#10;&#45; Task started by client&#10;&#45; Exit Code: 1, Exit Message: &quot;Docker container exited with non&#45;zero exit code: 1&quot;&#10;&#45; Policy allows no restarts&#10;&#45; Unhealthy because of failed task">
<ellipse fill="#d1d1e0" stroke="#000000" cx="81.5483" cy="-179" rx="27" ry="18"/>
<text text-anchor="middle" x="81.5483" y="-175.3" font-family="Times,serif" font-size="14.00" fill="#000000">rails</text>
</a>
</g>
</g>
<!-- alloc_e7cfc8c&#45;&gt;task_rails_e7cfc8c -->
<g id="edge54" class="edge">
<title>alloc_e7cfc8c&#45;&gt;task_rails_e7cfc8c</title>
<path fill="none" stroke="#000000" d="M70.8761,-232.6947C72.5124,-224.462 74.3173,-215.3814 75.9699,-207.0667"/>
<polygon fill="#000000" stroke="#000000" points="79.441,-207.5562 77.9576,-197.0658 72.5753,-206.1916 79.441,-207.5562"/>
</g>
<!-- alloc_7dcca6d&#45;&gt;eval_28a2aa4 -->
<g id="edge40" class="edge">
<title>alloc_7dcca6d&#45;&gt;eval_28a2aa4</title>
<path fill="none" stroke="#000000" d="M415.2722,-232.9182C399.103,-222.5052 380.7832,-210.7072 365.4118,-200.808"/>
<polygon fill="#000000" stroke="#000000" points="367.043,-197.6956 356.7405,-195.2238 363.2529,-203.5808 367.043,-197.6956"/>
</g>
<!-- alloc_7dcca6d&#45;&gt;alloc_fd39cc9 -->
<g id="edge50" class="edge">
<title>alloc_7dcca6d&#45;&gt;alloc_fd39cc9</title>
<path fill="none" stroke="#ff0000" d="M462.3164,-232.7756C464.6482,-221.7196 467.3114,-208.7587 469.5483,-197 473.416,-176.6692 477.3695,-153.9045 480.4894,-135.3856"/>
<polygon fill="#ff0000" stroke="#ff0000" points="483.9785,-135.7412 482.177,-125.3007 477.0745,-134.5858 483.9785,-135.7412"/>
</g>
<!-- task_rails_7dcca6d -->
<g id="node31" class="node">
<title>task_rails_7dcca6d</title>
<g id="a_node31"><a xlink:title="State: dead&#10;Restarts: 0&#10;Events:&#10;&#45; Task received by client&#10;&#45; Building Task Directory&#10;&#45; Task started by client&#10;&#45; Exit Code: 1, Exit Message: &quot;Docker container exited with non&#45;zero exit code: 1&quot;&#10;&#45; Policy allows no restarts&#10;&#45; Unhealthy because of failed task">
<ellipse fill="#d1d1e0" stroke="#000000" cx="433.5483" cy="-179" rx="27" ry="18"/>
<text text-anchor="middle" x="433.5483" y="-175.3" font-family="Times,serif" font-size="14.00" fill="#000000">rails</text>
</a>
</g>
</g>
<!-- alloc_7dcca6d&#45;&gt;task_rails_7dcca6d -->
<g id="edge51" class="edge">
<title>alloc_7dcca6d&#45;&gt;task_rails_7dcca6d</title>
<path fill="none" stroke="#000000" d="M448.8897,-232.6947C446.5113,-224.3705 443.8853,-215.1795 441.4883,-206.7898"/>
<polygon fill="#000000" stroke="#000000" points="444.8226,-205.7195 438.71,-197.0658 438.0919,-207.6426 444.8226,-205.7195"/>
</g>
<!-- alloc_8c5edbb&#45;&gt;eval_28a2aa4 -->
<g id="edge41" class="edge">
<title>alloc_8c5edbb&#45;&gt;eval_28a2aa4</title>
<path fill="none" stroke="#000000" d="M220.8044,-235.7827C243.5981,-224.0955 270.7818,-210.1573 292.5124,-199.0152"/>
<polygon fill="#000000" stroke="#000000" points="294.1614,-202.1031 301.4629,-194.426 290.9675,-195.8741 294.1614,-202.1031"/>
</g>
<!-- alloc_8c5edbb&#45;&gt;alloc_239d2fb -->
<g id="edge47" class="edge">
<title>alloc_8c5edbb&#45;&gt;alloc_239d2fb</title>
<path fill="none" stroke="#ff0000" d="M175.3329,-232.945C176.9349,-212.2375 181.4075,-183.3415 193.5483,-161 199.2713,-150.4686 207.385,-140.6462 215.9475,-132.0508"/>
<polygon fill="#ff0000" stroke="#ff0000" points="218.3824,-134.5652 223.203,-125.1305 213.551,-129.4998 218.3824,-134.5652"/>
</g>
<!-- task_rails_8c5edbb -->
<g id="node32" class="node">
<title>task_rails_8c5edbb</title>
<g id="a_node32"><a xlink:title="State: dead&#10;Restarts: 0&#10;Events:&#10;&#45; Task received by client&#10;&#45; Building Task Directory&#10;&#45; Task started by client&#10;&#45; Exit Code: 1, Exit Message: &quot;Docker container exited with non&#45;zero exit code: 1&quot;&#10;&#45; Policy allows no restarts&#10;&#45; Unhealthy because of failed task">
<ellipse fill="#d1d1e0" stroke="#000000" cx="229.5483" cy="-179" rx="27" ry="18"/>
<text text-anchor="middle" x="229.5483" y="-175.3" font-family="Times,serif" font-size="14.00" fill="#000000">rails</text>
</a>
</g>
</g>
<!-- alloc_8c5edbb&#45;&gt;task_rails_8c5edbb -->
<g id="edge52" class="edge">
<title>alloc_8c5edbb&#45;&gt;task_rails_8c5edbb</title>
<path fill="none" stroke="#000000" d="M192.8625,-232.6947C199.209,-223.4057 206.293,-213.0374 212.5307,-203.9076"/>
<polygon fill="#000000" stroke="#000000" points="215.4488,-205.8408 218.2003,-195.6095 209.669,-201.8919 215.4488,-205.8408"/>
</g>
<!-- alloc_239d2fb&#45;&gt;eval_949a642 -->
<g id="edge44" class="edge">
<title>alloc_239d2fb&#45;&gt;eval_949a642</title>
<path fill="none" stroke="#000000" d="M293.8807,-71.9182C307.2631,-61.8501 322.3665,-50.4873 335.2456,-40.7978"/>
<polygon fill="#000000" stroke="#000000" points="337.4606,-43.5114 343.3474,-34.7026 333.2522,-37.9177 337.4606,-43.5114"/>
</g>
<!-- task_rails_239d2fb -->
<g id="node35" class="node">
<title>task_rails_239d2fb</title>
<g id="a_node35"><a xlink:title="State: dead&#10;Restarts: 0&#10;Events:&#10;&#45; Task received by client&#10;&#45; Building Task Directory&#10;&#45; Task started by client&#10;&#45; Exit Code: 1, Exit Message: &quot;Docker container exited with non&#45;zero exit code: 1&quot;&#10;&#45; Policy allows no restarts&#10;&#45; Unhealthy because of failed task">
<ellipse fill="#d1d1e0" stroke="#000000" cx="258.5483" cy="-18" rx="27" ry="18"/>
<text text-anchor="middle" x="258.5483" y="-14.3" font-family="Times,serif" font-size="14.00" fill="#000000">rails</text>
</a>
</g>
</g>
<!-- alloc_239d2fb&#45;&gt;task_rails_239d2fb -->
<g id="edge55" class="edge">
<title>alloc_239d2fb&#45;&gt;task_rails_239d2fb</title>
<path fill="none" stroke="#000000" d="M258.5483,-71.6947C258.5483,-63.462 258.5483,-54.3814 258.5483,-46.0667"/>
<polygon fill="#000000" stroke="#000000" points="262.0484,-46.0657 258.5483,-36.0658 255.0484,-46.0658 262.0484,-46.0657"/>
</g>
<!-- task_rails_87a90b2 -->
<g id="node37" class="node">
<title>task_rails_87a90b2</title>
<g id="a_node37"><a xlink:title="State: dead&#10;Restarts: 0&#10;Events:&#10;&#45; Task received by client&#10;&#45; Building Task Directory&#10;&#45; Task started by client&#10;&#45; Sent interrupt. Waiting 5s before force killing&#10;&#45; Exit Code: 1, Exit Message: &quot;Docker container exited with non&#45;zero exit code: 1&quot;&#10;&#45; Task successfully killed">
<ellipse fill="#d1d1e0" stroke="#000000" cx="598.5483" cy="-18" rx="27" ry="18"/>
<text text-anchor="middle" x="598.5483" y="-14.3" font-family="Times,serif" font-size="14.00" fill="#000000">rails</text>
</a>
</g>
</g>
<!-- alloc_87a90b2&#45;&gt;task_rails_87a90b2 -->
<g id="edge57" class="edge">
<title>alloc_87a90b2&#45;&gt;task_rails_87a90b2</title>
<path fill="none" stroke="#000000" d="M598.5483,-71.6947C598.5483,-63.462 598.5483,-54.3814 598.5483,-46.0667"/>
<polygon fill="#000000" stroke="#000000" points="602.0484,-46.0657 598.5483,-36.0658 595.0484,-46.0658 602.0484,-46.0657"/>
</g>
<!-- alloc_6b2682f&#45;&gt;eval_949a642 -->
<g id="edge45" class="edge">
<title>alloc_6b2682f&#45;&gt;eval_949a642</title>
<path fill="none" stroke="#000000" d="M185.886,-78.8612C191.8054,-76.4859 197.8022,-74.1443 203.5483,-72 240.5505,-58.1921 282.9117,-44.1318 315.0341,-33.821"/>
<polygon fill="#000000" stroke="#000000" points="316.1971,-37.1238 324.6572,-30.7459 314.0663,-30.456 316.1971,-37.1238"/>
</g>
<!-- task_rails_6b2682f -->
<g id="node36" class="node">
<title>task_rails_6b2682f</title>
<g id="a_node36"><a xlink:title="State: dead&#10;Restarts: 0&#10;Events:&#10;&#45; Task received by client&#10;&#45; Building Task Directory&#10;&#45; Task started by client&#10;&#45; Exit Code: 1, Exit Message: &quot;Docker container exited with non&#45;zero exit code: 1&quot;&#10;&#45; Policy allows no restarts&#10;&#45; Unhealthy because of failed task">
<ellipse fill="#d1d1e0" stroke="#000000" cx="139.5483" cy="-18" rx="27" ry="18"/>
<text text-anchor="middle" x="139.5483" y="-14.3" font-family="Times,serif" font-size="14.00" fill="#000000">rails</text>
</a>
</g>
</g>
<!-- alloc_6b2682f&#45;&gt;task_rails_6b2682f -->
<g id="edge56" class="edge">
<title>alloc_6b2682f&#45;&gt;task_rails_6b2682f</title>
<path fill="none" stroke="#000000" d="M139.5483,-71.6947C139.5483,-63.462 139.5483,-54.3814 139.5483,-46.0667"/>
<polygon fill="#000000" stroke="#000000" points="143.0484,-46.0657 139.5483,-36.0658 136.0484,-46.0658 143.0484,-46.0657"/>
</g>
<!-- alloc_fd39cc9&#45;&gt;eval_949a642 -->
<g id="edge46" class="edge">
<title>alloc_fd39cc9&#45;&gt;eval_949a642</title>
<path fill="none" stroke="#000000" d="M446.5931,-71.9182C431.0563,-61.5818 413.4683,-49.8807 398.6568,-40.0267"/>
<polygon fill="#000000" stroke="#000000" points="400.5578,-37.0877 390.2933,-34.4626 396.6805,-42.9157 400.5578,-37.0877"/>
</g>
<!-- task_rails_fd39cc9 -->
<g id="node38" class="node">
<title>task_rails_fd39cc9</title>
<g id="a_node38"><a xlink:title="State: dead&#10;Restarts: 0&#10;Events:&#10;&#45; Task received by client&#10;&#45; Building Task Directory&#10;&#45; Task started by client&#10;&#45; Exit Code: 1, Exit Message: &quot;Docker container exited with non&#45;zero exit code: 1&quot;&#10;&#45; Policy allows no restarts&#10;&#45; Unhealthy because of failed task">
<ellipse fill="#d1d1e0" stroke="#000000" cx="486.5483" cy="-18" rx="27" ry="18"/>
<text text-anchor="middle" x="486.5483" y="-14.3" font-family="Times,serif" font-size="14.00" fill="#000000">rails</text>
</a>
</g>
</g>
<!-- alloc_fd39cc9&#45;&gt;task_rails_fd39cc9 -->
<g id="edge58" class="edge">
<title>alloc_fd39cc9&#45;&gt;task_rails_fd39cc9</title>
<path fill="none" stroke="#000000" d="M486.5483,-71.6947C486.5483,-63.462 486.5483,-54.3814 486.5483,-46.0667"/>
<polygon fill="#000000" stroke="#000000" points="490.0484,-46.0657 486.5483,-36.0658 483.0484,-46.0658 490.0484,-46.0657"/>
</g>
<!-- task_rails_0b122a6 -->
<g id="node39" class="node">
<title>task_rails_0b122a6</title>
<g id="a_node39"><a xlink:title="State: dead&#10;Restarts: 0&#10;Events:&#10;&#45; Task received by client&#10;&#45; Building Task Directory&#10;&#45; Task started by client&#10;&#45; Sent interrupt. Waiting 5s before force killing&#10;&#45; Exit Code: 0&#10;&#45; Task successfully killed">
<ellipse fill="#d1d1e0" stroke="#000000" cx="1350.5483" cy="-179" rx="27" ry="18"/>
<text text-anchor="middle" x="1350.5483" y="-175.3" font-family="Times,serif" font-size="14.00" fill="#000000">rails</text>
</a>
</g>
</g>
<!-- alloc_0b122a6&#45;&gt;task_rails_0b122a6 -->
<g id="edge59" class="edge">
<title>alloc_0b122a6&#45;&gt;task_rails_0b122a6</title>
<path fill="none" stroke="#000000" d="M1350.5483,-232.6947C1350.5483,-224.462 1350.5483,-215.3814 1350.5483,-207.0667"/>
<polygon fill="#000000" stroke="#000000" points="1354.0484,-207.0657 1350.5483,-197.0658 1347.0484,-207.0658 1354.0484,-207.0657"/>
</g>
<!-- task_rails_1bab0f7 -->
<g id="node40" class="node">
<title>task_rails_1bab0f7</title>
<g id="a_node40"><a xlink:title="State: running&#10;Restarts: 0&#10;Events:&#10;&#45; Task received by client&#10;&#45; Building Task Directory&#10;&#45; Task started by client">
<ellipse fill="#66ff66" stroke="#000000" cx="1460.5483" cy="-179" rx="27" ry="18"/>
<text text-anchor="middle" x="1460.5483" y="-175.3" font-family="Times,serif" font-size="14.00" fill="#000000">rails</text>
</a>
</g>
</g>
<!-- alloc_1bab0f7&#45;&gt;task_rails_1bab0f7 -->
<g id="edge60" class="edge">
<title>alloc_1bab0f7&#45;&gt;task_rails_1bab0f7</title>
<path fill="none" stroke="#000000" d="M1460.5483,-232.6947C1460.5483,-224.462 1460.5483,-215.3814 1460.5483,-207.0667"/>
<polygon fill="#000000" stroke="#000000" points="1464.0484,-207.0657 1460.5483,-197.0658 1457.0484,-207.0658 1464.0484,-207.0657"/>
</g>
<!-- task_rails_40481c3 -->
<g id="node41" class="node">
<title>task_rails_40481c3</title>
<g id="a_node41"><a xlink:title="State: dead&#10;Restarts: 0&#10;Events:&#10;&#45; Task received by client&#10;&#45; Building Task Directory&#10;&#45; Task started by client&#10;&#45; Sent interrupt. Waiting 5s before force killing&#10;&#45; Exit Code: 0&#10;&#45; Task successfully killed">
<ellipse fill="#d1d1e0" stroke="#000000" cx="1570.5483" cy="-179" rx="27" ry="18"/>
<text text-anchor="middle" x="1570.5483" y="-175.3" font-family="Times,serif" font-size="14.00" fill="#000000">rails</text>
</a>
</g>
</g>
<!-- alloc_40481c3&#45;&gt;task_rails_40481c3 -->
<g id="edge61" class="edge">
<title>alloc_40481c3&#45;&gt;task_rails_40481c3</title>
<path fill="none" stroke="#000000" d="M1570.5483,-232.6947C1570.5483,-224.462 1570.5483,-215.3814 1570.5483,-207.0667"/>
<polygon fill="#000000" stroke="#000000" points="1574.0484,-207.0657 1570.5483,-197.0658 1567.0484,-207.0658 1574.0484,-207.0657"/>
</g>
<!-- task_rails_522d5bc -->
<g id="node42" class="node">
<title>task_rails_522d5bc</title>
<g id="a_node42"><a xlink:title="State: dead&#10;Restarts: 0&#10;Events:&#10;&#45; Task received by client&#10;&#45; Building Task Directory&#10;&#45; Task started by client&#10;&#45; Sent interrupt. Waiting 5s before force killing&#10;&#45; Exit Code: 0&#10;&#45; Task successfully killed">
<ellipse fill="#d1d1e0" stroke="#000000" cx="1239.5483" cy="-179" rx="27" ry="18"/>
<text text-anchor="middle" x="1239.5483" y="-175.3" font-family="Times,serif" font-size="14.00" fill="#000000">rails</text>
</a>
</g>
</g>
<!-- alloc_522d5bc&#45;&gt;task_rails_522d5bc -->
<g id="edge62" class="edge">
<title>alloc_522d5bc&#45;&gt;task_rails_522d5bc</title>
<path fill="none" stroke="#000000" d="M1239.5483,-232.6947C1239.5483,-224.462 1239.5483,-215.3814 1239.5483,-207.0667"/>
<polygon fill="#000000" stroke="#000000" points="1243.0484,-207.0657 1239.5483,-197.0658 1236.0484,-207.0658 1243.0484,-207.0657"/>
</g>
</g>
</svg>
