<?xml version="1.0" encoding="UTF-8" standalone="no"?>
<!DOCTYPE svg PUBLIC "-//W3C//DTD SVG 1.1//EN"
 "http://www.w3.org/Graphics/SVG/1.1/DTD/svg11.dtd">
<!-- Generated by graphviz version 2.40.1 (20161225.0304)
 -->
<!-- Title: G Pages: 1 -->
<svg width="428pt" height="277pt"
 viewBox="0.00 0.00 427.50 277.00" xmlns="http://www.w3.org/2000/svg" xmlns:xlink="http://www.w3.org/1999/xlink">
<g id="graph0" class="graph" transform="scale(1 1) rotate(0) translate(4 273)">
<title>G</title>
<polygon fill="#ffffff" stroke="transparent" points="-4,4 -4,-273 423.5,-273 423.5,4 -4,4"/>
<!-- deploy_daae0cf -->
<g id="node1" class="node">
<title>deploy_daae0cf</title>
<g id="a_node1"><a xlink:title="Status: running&#10;Description: Deployment is running">
<polygon fill="#66ccff" stroke="#000000" points="260.5,-269 161.5,-269 161.5,-233 260.5,-233 260.5,-269"/>
<text text-anchor="middle" x="211" y="-247.3" font-family="Times,serif" font-size="14.00" fill="#000000">deploy:daae0cf</text>
</a>
</g>
</g>
<!-- eval_b181189 -->
<g id="node2" class="node">
<title>eval_b181189</title>
<g id="a_node2"><a xlink:title="Status: complete&#10;TriggeredBy: job&#45;register">
<ellipse fill="#ccffff" stroke="#000000" cx="211" cy="-179" rx="58.4896" ry="18"/>
<text text-anchor="middle" x="211" y="-175.3" font-family="Times,serif" font-size="14.00" fill="#000000">eval:b181189</text>
</a>
</g>
</g>
<!-- deploy_daae0cf&#45;&gt;eval_b181189 -->
<g id="edge1" class="edge">
<title>deploy_daae0cf&#45;&gt;eval_b181189</title>
<path fill="none" stroke="#000000" d="M211,-232.8314C211,-225.131 211,-215.9743 211,-207.4166"/>
<polygon fill="#000000" stroke="#000000" points="214.5001,-207.4132 211,-197.4133 207.5001,-207.4133 214.5001,-207.4132"/>
</g>
<!-- alloc_0c82c8b -->
<g id="node3" class="node">
<title>alloc_0c82c8b</title>
<g id="a_node3"><a xlink:title="DesiredStatus: run&#10;DeploymentStatus.Canary: null&#10;DeploymentStatus.Healthy: null">
<polygon fill="#66ff66" stroke="#000000" points="92,-125 0,-125 0,-72 92,-72 92,-125"/>
<text text-anchor="middle" x="46" y="-109.8" font-family="Times,serif" font-size="14.00" fill="#000000">alloc:0c82c8b</text>
<text text-anchor="middle" x="46" y="-94.8" font-family="Times,serif" font-size="14.00" fill="#000000">v0</text>
<text text-anchor="middle" x="46" y="-79.8" font-family="Times,serif" font-size="14.00" fill="#000000">running</text>
</a>
</g>
</g>
<!-- eval_b181189&#45;&gt;alloc_0c82c8b -->
<g id="edge2" class="edge">
<title>eval_b181189&#45;&gt;alloc_0c82c8b</title>
<path fill="none" stroke="#000000" d="M179.5764,-163.6691C157.4952,-152.8961 127.3659,-138.1967 101.3104,-125.4848"/>
<polygon fill="#000000" stroke="#000000" points="102.8062,-122.3202 92.284,-121.081 99.7368,-128.6114 102.8062,-122.3202"/>
</g>
<!-- alloc_5617e4f -->
<g id="node4" class="node">
<title>alloc_5617e4f</title>
<g id="a_node4"><a xlink:title="DesiredStatus: run&#10;DeploymentStatus.Canary: null&#10;DeploymentStatus.Healthy: null">
<polygon fill="#66ff66" stroke="#000000" points="201.5,-125 110.5,-125 110.5,-72 201.5,-72 201.5,-125"/>
<text text-anchor="middle" x="156" y="-109.8" font-family="Times,serif" font-size="14.00" fill="#000000">alloc:5617e4f</text>
<text text-anchor="middle" x="156" y="-94.8" font-family="Times,serif" font-size="14.00" fill="#000000">v0</text>
<text text-anchor="middle" x="156" y="-79.8" font-family="Times,serif" font-size="14.00" fill="#000000">running</text>
</a>
</g>
</g>
<!-- eval_b181189&#45;&gt;alloc_5617e4f -->
<g id="edge3" class="edge">
<title>eval_b181189&#45;&gt;alloc_5617e4f</title>
<path fill="none" stroke="#000000" d="M198.7937,-161.1344C193.2693,-153.0487 186.5375,-143.1957 180.0637,-133.7205"/>
<polygon fill="#000000" stroke="#000000" points="182.7643,-131.4689 174.233,-125.1865 176.9845,-135.4179 182.7643,-131.4689"/>
</g>
<!-- alloc_7f0640d -->
<g id="node5" class="node">
<title>alloc_7f0640d</title>
<g id="a_node5"><a xlink:title="DesiredStatus: run&#10;DeploymentStatus.Canary: null&#10;DeploymentStatus.Healthy: null">
<polygon fill="#66ff66" stroke="#000000" points="312,-125 220,-125 220,-72 312,-72 312,-125"/>
<text text-anchor="middle" x="266" y="-109.8" font-family="Times,serif" font-size="14.00" fill="#000000">alloc:7f0640d</text>
<text text-anchor="middle" x="266" y="-94.8" font-family="Times,serif" font-size="14.00" fill="#000000">v0</text>
<text text-anchor="middle" x="266" y="-79.8" font-family="Times,serif" font-size="14.00" fill="#000000">running</text>
</a>
</g>
</g>
<!-- eval_b181189&#45;&gt;alloc_7f0640d -->
<g id="edge4" class="edge">
<title>eval_b181189&#45;&gt;alloc_7f0640d</title>
<path fill="none" stroke="#000000" d="M223.2063,-161.1344C228.7307,-153.0487 235.4625,-143.1957 241.9363,-133.7205"/>
<polygon fill="#000000" stroke="#000000" points="245.0155,-135.4179 247.767,-125.1865 239.2357,-131.4689 245.0155,-135.4179"/>
</g>
<!-- alloc_7ff5425 -->
<g id="node6" class="node">
<title>alloc_7ff5425</title>
<g id="a_node6"><a xlink:title="DesiredStatus: run&#10;DeploymentStatus.Canary: null&#10;DeploymentStatus.Healthy: null">
<polygon fill="#66ff66" stroke="#000000" points="419.5,-125 330.5,-125 330.5,-72 419.5,-72 419.5,-125"/>
<text text-anchor="middle" x="375" y="-109.8" font-family="Times,serif" font-size="14.00" fill="#000000">alloc:7ff5425</text>
<text text-anchor="middle" x="375" y="-94.8" font-family="Times,serif" font-size="14.00" fill="#000000">v0</text>
<text text-anchor="middle" x="375" y="-79.8" font-family="Times,serif" font-size="14.00" fill="#000000">running</text>
</a>
</g>
</g>
<!-- eval_b181189&#45;&gt;alloc_7ff5425 -->
<g id="edge5" class="edge">
<title>eval_b181189&#45;&gt;alloc_7ff5425</title>
<path fill="none" stroke="#000000" d="M242.2332,-163.6691C264.5131,-152.7329 295.0365,-137.7504 321.1991,-124.9084"/>
<polygon fill="#000000" stroke="#000000" points="322.816,-128.0137 330.2506,-120.4654 319.7315,-121.7299 322.816,-128.0137"/>
</g>
<!-- task_rails_0c82c8b -->
<g id="node7" class="node">
<title>task_rails_0c82c8b</title>
<g id="a_node7"><a xlink:title="State: running&#10;Restarts: 0&#10;Events:&#10;&#45; Task received by client&#10;&#45; Building Task Directory&#10;&#45; Task started by client">
<ellipse fill="#66ff66" stroke="#000000" cx="46" cy="-18" rx="27" ry="18"/>
<text text-anchor="middle" x="46" y="-14.3" font-family="Times,serif" font-size="14.00" fill="#000000">rails</text>
</a>
</g>
</g>
<!-- alloc_0c82c8b&#45;&gt;task_rails_0c82c8b -->
<g id="edge6" class="edge">
<title>alloc_0c82c8b&#45;&gt;task_rails_0c82c8b</title>
<path fill="none" stroke="#000000" d="M46,-71.6947C46,-63.462 46,-54.3814 46,-46.0667"/>
<polygon fill="#000000" stroke="#000000" points="49.5001,-46.0657 46,-36.0658 42.5001,-46.0658 49.5001,-46.0657"/>
</g>
<!-- task_rails_5617e4f -->
<g id="node8" class="node">
<title>task_rails_5617e4f</title>
<g id="a_node8"><a xlink:title="State: running&#10;Restarts: 0&#10;Events:&#10;&#45; Task received by client&#10;&#45; Building Task Directory&#10;&#45; Task started by client">
<ellipse fill="#66ff66" stroke="#000000" cx="156" cy="-18" rx="27" ry="18"/>
<text text-anchor="middle" x="156" y="-14.3" font-family="Times,serif" font-size="14.00" fill="#000000">rails</text>
</a>
</g>
</g>
<!-- alloc_5617e4f&#45;&gt;task_rails_5617e4f -->
<g id="edge7" class="edge">
<title>alloc_5617e4f&#45;&gt;task_rails_5617e4f</title>
<path fill="none" stroke="#000000" d="M156,-71.6947C156,-63.462 156,-54.3814 156,-46.0667"/>
<polygon fill="#000000" stroke="#000000" points="159.5001,-46.0657 156,-36.0658 152.5001,-46.0658 159.5001,-46.0657"/>
</g>
<!-- task_rails_7f0640d -->
<g id="node9" class="node">
<title>task_rails_7f0640d</title>
<g id="a_node9"><a xlink:title="State: running&#10;Restarts: 0&#10;Events:&#10;&#45; Task received by client&#10;&#45; Building Task Directory&#10;&#45; Task started by client">
<ellipse fill="#66ff66" stroke="#000000" cx="266" cy="-18" rx="27" ry="18"/>
<text text-anchor="middle" x="266" y="-14.3" font-family="Times,serif" font-size="14.00" fill="#000000">rails</text>
</a>
</g>
</g>
<!-- alloc_7f0640d&#45;&gt;task_rails_7f0640d -->
<g id="edge8" class="edge">
<title>alloc_7f0640d&#45;&gt;task_rails_7f0640d</title>
<path fill="none" stroke="#000000" d="M266,-71.6947C266,-63.462 266,-54.3814 266,-46.0667"/>
<polygon fill="#000000" stroke="#000000" points="269.5001,-46.0657 266,-36.0658 262.5001,-46.0658 269.5001,-46.0657"/>
</g>
<!-- task_rails_7ff5425 -->
<g id="node10" class="node">
<title>task_rails_7ff5425</title>
<g id="a_node10"><a xlink:title="State: running&#10;Restarts: 0&#10;Events:&#10;&#45; Task received by client&#10;&#45; Building Task Directory&#10;&#45; Task started by client">
<ellipse fill="#66ff66" stroke="#000000" cx="375" cy="-18" rx="27" ry="18"/>
<text text-anchor="middle" x="375" y="-14.3" font-family="Times,serif" font-size="14.00" fill="#000000">rails</text>
</a>
</g>
</g>
<!-- alloc_7ff5425&#45;&gt;task_rails_7ff5425 -->
<g id="edge9" class="edge">
<title>alloc_7ff5425&#45;&gt;task_rails_7ff5425</title>
<path fill="none" stroke="#000000" d="M375,-71.6947C375,-63.462 375,-54.3814 375,-46.0667"/>
<polygon fill="#000000" stroke="#000000" points="378.5001,-46.0657 375,-36.0658 371.5001,-46.0658 378.5001,-46.0657"/>
</g>
</g>
</svg>
